<?xml version="1.0" encoding="iso-8859-1"?>
<!-- Generator: Adobe Illustrator 19.0.0, SVG Export Plug-In . SVG Version: 6.00 Build 0)  -->
<svg version="1.1" id="Capa_1" xmlns="http://www.w3.org/2000/svg" xmlns:xlink="http://www.w3.org/1999/xlink" x="0px" y="0px"
	 viewBox="0 0 449.306 449.306" style="enable-background:new 0 0 449.306 449.306;" xml:space="preserve">
<g>
	<path style="fill:#00ACEA;" d="M303.02,83.683l-71.053-71.576c-4.165-3.725-10.464-3.725-14.629,0l-71.053,71.576
		c-4.047,4.24-4.047,10.911,0,15.151c4.165,3.725,10.464,3.725,14.629,0l53.29-53.812v192.784c0,5.771,4.678,10.449,10.449,10.449
		c5.771,0,10.449-4.678,10.449-10.449V45.021l53.29,53.812c4.247,3.503,10.382,3.503,14.629,0
		C307.067,94.594,307.067,87.922,303.02,83.683z"/>
	<path style="fill:#00EFD1;" d="M447.739,255.568l-58.514-127.478c-1.766-3.953-5.603-6.578-9.927-6.792h-50.155
		c-5.771,0-10.449,4.678-10.449,10.449c0,5.771,4.678,10.449,10.449,10.449h43.363l53.29,120.163h-64.261
		c-11.191-0.21-22.222,2.683-31.869,8.359c-9.358,6.176-16.783,14.869-21.42,25.078c-9.445,20.967-30.294,34.457-53.29,34.482
		h-60.604c-11.329-0.342-22.35-3.774-31.869-9.927c-9.23-6.096-16.634-14.583-21.42-24.555c-9.751-20.559-30.536-33.6-53.29-33.437
		H23.51l63.216-120.163h33.437c5.771,0,10.449-4.678,10.449-10.449c0-5.771-4.678-10.449-10.449-10.449H80.457
		c-4.017,0.298-7.584,2.676-9.404,6.269L2.09,254.523c-1.139,1.53-1.859,3.331-2.09,5.225V390.36
		c0,28.735,25.078,49.633,53.812,49.633h341.682c28.735,0,53.812-20.898,53.812-49.633V259.748
		C448.931,258.304,448.405,256.903,447.739,255.568z"/>
</g>
<g>
</g>
<g>
</g>
<g>
</g>
<g>
</g>
<g>
</g>
<g>
</g>
<g>
</g>
<g>
</g>
<g>
</g>
<g>
</g>
<g>
</g>
<g>
</g>
<g>
</g>
<g>
</g>
<g>
</g>
</svg>
